<?xml version="1.0" encoding="utf-8"?>
<!-- Generator: Adobe Illustrator 13.0.2, SVG Export Plug-In . SVG Version: 6.00 Build 14948)  -->
<svg version="1.2" baseProfile="tiny" id="Ebene_1" xmlns="http://www.w3.org/2000/svg" xmlns:xlink="http://www.w3.org/1999/xlink"
	 x="0px" y="0px" width="39px" height="42px" viewBox="0 0 39 42" xml:space="preserve">
<path d="M15.964,13.412c-0.34-3.514-1.127-8.618-2.525-12.081c-1.653,0.782-3.104,1.873-4.375,3.195
	C12.497,7.433,14.803,11.204,15.964,13.412"/>
<path d="M29.938,4.526c-1.271-1.322-2.724-2.413-4.376-3.194c-1.398,3.462-2.186,8.566-2.525,12.08
	C24.197,11.204,26.502,7.432,29.938,4.526"/>
<path d="M33.675,9.887c-5.178,2.555-7.842,5.687-7.885,5.74c-0.075,0.089-0.182,0.137-0.29,0.137c-0.084,0-0.168-0.028-0.239-0.086
	c-0.159-0.132-0.183-0.367-0.051-0.526c0.045-0.057,2.788-3.29,8.115-5.924c-0.83-1.51-1.783-2.905-2.872-4.139
	c-4.992,4.208-7.567,10.347-7.606,10.44c-0.014,0.035-0.044,0.054-0.065,0.082c-0.019,0.021-0.028,0.043-0.05,0.061
	c-0.067,0.055-0.145,0.092-0.231,0.092h-0.022c-0.006,0-0.009-0.007-0.015-0.008c-0.035-0.004-0.07-0.007-0.104-0.021
	c-0.028-0.011-0.036-0.042-0.061-0.06c-0.042-0.028-0.073-0.056-0.1-0.099c-0.026-0.041-0.036-0.079-0.045-0.127
	c-0.006-0.03-0.031-0.052-0.029-0.084c0.031-0.519,0.573-9.027,2.751-14.335C23.27,0.379,21.492,0,19.5,0s-3.77,0.379-5.376,1.031
	c2.178,5.309,2.72,13.816,2.751,14.335c0.002,0.032-0.023,0.054-0.029,0.084c-0.009,0.048-0.019,0.086-0.045,0.127
	c-0.026,0.043-0.058,0.07-0.1,0.099c-0.024,0.018-0.032,0.049-0.061,0.06c-0.033,0.014-0.068,0.017-0.104,0.021
	c-0.006,0.001-0.009,0.008-0.015,0.008H16.5c-0.087,0-0.164-0.037-0.231-0.092c-0.021-0.018-0.031-0.039-0.05-0.061
	c-0.021-0.028-0.052-0.047-0.065-0.082c-0.039-0.094-2.614-6.232-7.606-10.44C7.458,6.322,6.505,7.718,5.675,9.228
	c5.327,2.634,8.07,5.867,8.115,5.924c0.132,0.159,0.108,0.395-0.051,0.526c-0.071,0.058-0.155,0.086-0.239,0.086
	c-0.108,0-0.215-0.048-0.29-0.137c-0.043-0.054-2.706-3.186-7.885-5.74C0.007,20.179,0,34.814,0,34.814
	C0,36.297,1.247,37.5,2.786,37.5H9l3.726,3.146l2.709-1.355L19.5,42l4.065-2.71l2.709,1.355L30,37.5h6.214
	c1.539,0,2.786-1.203,2.786-2.686C39,34.814,38.993,20.179,33.675,9.887 M22.694,18.775h2.611c0.12,0.216,0.194,0.461,0.194,0.725
	c0,0.828-0.672,1.5-1.5,1.5s-1.5-0.672-1.5-1.5C22.5,19.236,22.574,18.991,22.694,18.775 M19.5,22.5c2.13,0,3.857,1.007,3.857,2.25
	c0,0.144-0.028,0.282-0.072,0.417c-0.183-0.056-0.371-0.095-0.571-0.095c-1.017,0-1.841,0.789-1.914,1.788
	C20.392,26.945,19.959,27,19.5,27s-0.892-0.055-1.3-0.14c-0.073-0.999-0.897-1.788-1.914-1.788c-0.2,0-0.389,0.039-0.571,0.095
	c-0.044-0.135-0.072-0.273-0.072-0.417C15.643,23.507,17.37,22.5,19.5,22.5 M13.694,18.775h2.611
	c0.12,0.216,0.194,0.461,0.194,0.725c0,0.828-0.672,1.5-1.5,1.5s-1.5-0.672-1.5-1.5C13.5,19.236,13.574,18.991,13.694,18.775
	 M8.25,30.75c0,0.415-0.335,0.75-0.75,0.75s-0.75-0.335-0.75-0.75c0-3.104,3.058-5.71,7.535-6.861
	c-0.087,0.275-0.143,0.562-0.143,0.861c0,0.236,0.054,0.476,0.118,0.718C10.72,26.492,8.25,28.499,8.25,30.75 M25.478,33.408
	c-0.056,0.222-0.255,0.368-0.471,0.367h-9.373h-0.436c-0.945-0.004-1.708-0.825-1.704-1.779c0.004-0.955,0.773-1.725,1.719-1.721
	c0.144,0.001,0.289,0.021,0.421,0.055l9.373,2.449l0.123,0.032C25.39,32.879,25.545,33.146,25.478,33.408 M31.5,31.5
	c-0.415,0-0.75-0.335-0.75-0.75c0-2.251-2.47-4.258-6.011-5.282c0.064-0.242,0.118-0.481,0.118-0.718c0-0.3-0.056-0.586-0.143-0.861
	c4.478,1.151,7.535,3.757,7.535,6.861C32.25,31.165,31.915,31.5,31.5,31.5"/>
</svg>
