<?xml version="1.0" ?><svg style="enable-background:new 0 0 48 48;" version="1.1" viewBox="0 0 48 48" xml:space="preserve" xmlns="http://www.w3.org/2000/svg" xmlns:xlink="http://www.w3.org/1999/xlink"><g id="Padding__x26__Artboard"/><g id="Icons"><g><path d="M29.50412,19.16266c0.35999-0.03503,0.73193-0.11597,1.11346-0.26379    c0.50874-1.27358-0.18634-2.07617-0.18884-2.08099c-0.30896-0.09711-0.64917-0.16473-1.01605-0.19025    C29.58432,17.01972,29.97971,18.15125,29.50412,19.16266z" style="fill:#303030;"/><path d="M27.09098,17.08002c-0.4317,0.19537-0.88019,0.45349-1.34711,0.80573    c0.24854,0.20258,0.66498,0.50293,1.19611,0.76483C26.7999,18.08759,26.93442,17.49701,27.09098,17.08002z" style="fill:#303030;"/><path d="M31.37943,18.51319c0.28967-0.17651,0.58136-0.38275,0.87469-0.646    c-0.20502-0.18628-0.55719-0.46521-1.02594-0.7135C31.361,17.52985,31.46164,18.02533,31.37943,18.51319z" style="fill:#303030;"/><path d="M8.20285,26.60059c0.01709-0.04004,0.04199-0.07568,0.07422-0.10498l1.69629-1.54883    l0.03564-1.2627c0.00244-0.08936,0.04492-0.17334,0.11523-0.22852l1.29834-1.01172l0.78809-1.94727    c0.04291-0.15942,1.026-3.59631,3.56183-6.62872c-1.58002,1.21552-3.28619,2.82672-5.02667,4.97687    c-0.05078,0.06006-4.73291,5.73047-3.70117,10.08691c0.29803,1.25903,1.05627,2.29816,2.25885,3.10315    C8.39865,30.75934,7.33292,28.6557,8.20285,26.60059z" style="fill:#303030;"/><path d="M20.70676,18.65082c0.53137-0.26202,0.94788-0.5625,1.19629-0.76508    c-0.46765-0.35278-0.9165-0.61163-1.34833-0.80762C20.71164,17.49524,20.84702,18.08685,20.70676,18.65082z" style="fill:#303030;"/><path d="M16.42081,17.14685c-0.47107,0.25012-0.82428,0.53198-1.02948,0.71985    c0.29376,0.26373,0.58594,0.47046,0.87604,0.64716C16.18467,18.02301,16.28696,17.52393,16.42081,17.14685z" style="fill:#303030;"/><path d="M36.02201,20.82141c0.17085,0.46647,0.36464,0.92381,0.55138,1.38403    c0.03225,0.07947,0.0645,0.15894,0.09674,0.23841l1.29883,1.01172c0.07031,0.05518,0.11279,0.13916,0.11523,0.22852    l0.03564,1.2627l1.69629,1.54883c0.03223,0.0293,0.05713,0.06494,0.07422,0.10498    c0.87146,2.05884-0.19958,4.16614-1.10547,5.44086c0.45129-0.27661,0.8703-0.59418,1.21973-0.97211    c0.78564-0.84912,1.15332-1.88965,1.09277-3.0918c-0.22992-4.60132-4.4408-9.89673-8.138-13.29736    c0.61368,0.83381,1.15363,1.72129,1.62547,2.64253c0.35384,0.69086,0.67046,1.40134,0.94437,2.12766    C35.66182,19.80195,35.98561,20.722,36.02201,20.82141z" style="fill:#303030;"/><path d="M38.76615,32.75373c-0.30316,0.16711-2.25039,1.14549-6.01642,1.52069    c-0.16211,0-0.29541-0.12842-0.2998-0.2915c-0.00488-0.16553,0.12598-0.30371,0.2915-0.30811    c0.0351-0.00104,2.50427-0.08826,4.74939-0.9884c0.55652-0.60248,2.86633-3.31256,1.87122-5.79285l-1.74072-1.58936    c-0.06006-0.05518-0.09521-0.13184-0.09766-0.21338l-0.03516-1.24854l-1.25049-0.97461    c-0.0415-0.03271-0.07373-0.0752-0.09375-0.12402c0,0-0.81781-2.02134-0.81787-2.02149    c-0.25553-0.63158-0.44067-1.2892-0.71365-1.91744c-0.61596-1.41756-1.38376-2.77637-2.32014-4.00753    c-1.2768-1.67875-2.81074-3.04551-4.79046-3.84348c-0.03174-0.01279-0.06353-0.02546-0.09536-0.03802    c-1.07103-0.42243-2.25976-0.75199-3.45002-0.73212c-0.04413,0.00116-2.21997,0.09564-5.37201,1.83453    c-4.21857,3.10254-5.7912,8.61566-5.8067,8.67133l-0.8291,2.0542c-0.02002,0.04882-0.05225,0.0913-0.09375,0.12402    l-1.25049,0.97461l-0.03516,1.24854c-0.00244,0.08154-0.0376,0.1582-0.09766,0.21338l-1.74072,1.58936    c-1.04248,2.59833,1.54358,5.45075,1.93933,5.86566c0.39545,0.07519,5.77203,1.16735,8.3341,1.24517    c0.20833,0.00633,0.35051,0.23555,0.26339,0.425c-0.04844,0.10534-0.15677,0.17461-0.28194,0.17461    c-2.7124-0.08252-8.29785-1.23389-8.53467-1.28271c-0.50977-0.22003-0.96625-0.46735-1.38159-0.73578    c-0.1673,0.41235-0.41223,1.16863-0.22436,1.73335c0.03609,0.10847,0.08712,0.21372,0.16028,0.30221    c0.16381,0.19813,0.46483,0.20565,0.70328,0.24146c0.27769,0.04171,0.5561,0.07867,0.83459,0.11467    c0.33408,0.04319,0.66842,0.08437,1.00287,0.12465c0.33262,0.04006,0.66536,0.07916,0.99817,0.11764    c0.27345,0.03161,0.54696,0.0628,0.8205,0.09364c0.15661,0.01765,0.31324,0.03511,0.46985,0.05266    c0.01569,0.00176,0.03139,0.00348,0.04707,0.00531c0.16455,0.01904,0.28223,0.16797,0.26318,0.33252    c-0.01758,0.15283-0.14746,0.26514-0.29736,0.26514c-0.01172,0-0.02344-0.00049-0.03516-0.00195l-3.97308-0.46198    c0.74091,0.88208,2.5896,2.53119,5.92279,2.28864c4.36377-0.30615,12.20312-0.75146,15.66846-0.28613    c2.89355,0.3916,7.84766-0.98193,8.27051-1.63428c-0.01172-0.00537-0.02734-0.01514-0.04883-0.02637    c-0.42676-0.22266-0.53369-0.51123-0.54883-0.71387c-0.00507-0.07001,0.00024-0.13849,0.01337-0.20483    c-1.41638,0.48224-4.36072,1.28979-8.22479,1.28979c-0.71826,0-1.46729-0.02783-2.24414-0.09131    c-0.16504-0.01318-0.28809-0.1582-0.27441-0.32324c0.01318-0.16504,0.15918-0.2998,0.32324-0.27441    c6.07117,0.49261,10.52911-1.25934,11.05011-1.47565c-0.00543-0.01117,0.00354-0.05597-0.00519-0.12299    C39.69565,33.57801,39.16941,33.06574,38.76615,32.75373z M17.905,36.21631h-1.80176c-0.16553,0-0.2998-0.13428-0.2998-0.2998    s0.13428-0.2998,0.2998-0.2998H17.905c0.16553,0,0.2998,0.13428,0.2998,0.2998S18.07053,36.21631,17.905,36.21631z     M29.81907,14.21973c0.04199,0.01123,1.02588,0.27734,1.65283,0.74707c0.13232,0.09961,0.15918,0.2876,0.06006,0.42041    c-0.05908,0.07861-0.14941,0.11963-0.24023,0.11963c-0.06299,0-0.12598-0.01953-0.18018-0.05957    c-0.53467-0.40137-1.43799-0.64502-1.44678-0.64746c-0.16016-0.04297-0.25537-0.20752-0.21289-0.36719    C29.49485,14.27295,29.65989,14.17725,29.81907,14.21973z M24.97483,17.85987l0.00037-0.00043    c0.00226-0.16272,0.09839-3.22137,3.15442-3.64703c0.1626-0.02393,0.31543,0.0918,0.33887,0.25586    c0.02246,0.16406-0.0918,0.31592-0.25586,0.33887c-1.81665,0.25275-2.3811,1.5929-2.55725,2.41656    c4.16278-2.89752,7.22278,0.41412,7.255,0.44916c0.10693,0.11963,0.10107,0.30225-0.01367,0.41455    c-1.29688,1.26807-2.59961,1.69092-3.75977,1.69092c-2.30322,0-4.0459-1.66553-4.07227-1.69092    c-0.00043-0.00043-0.00018-0.00116-0.00061-0.00159c-0.05487-0.0542-0.08923-0.12897-0.08923-0.21228    c0,0,0.00024-0.00995,0.00031-0.01288C24.97513,17.86066,24.97483,17.86017,24.97483,17.85987z M28.70859,22.95471    l-3.20844-1.09088c-0.30476-0.09526-0.37919-0.43094-0.32131-0.71181c0.0271-0.13151,0.08301-0.2915,0.18129-0.3882    c0.14313-0.14082,0.39091-0.18031,0.57714-0.1203c0.1998,0.06438,0.69624,0.45951,0.78578,0.5229    c0.11035,0.07811,0.21917,0.15835,0.32996,0.23584c0.32446,0.22693,0.64891,0.45386,0.97337,0.68079    c0.25342,0.17725,0.50685,0.3545,0.76027,0.53175c0.07025,0.04914,0.14051,0.09827,0.21076,0.14741    C29.54239,23.14337,28.70859,22.95471,28.70859,22.95471z M23.08242,20.99838c0.07254,0.1897,0.07528,0.41792,0.00829,0.59241    c-0.05154,0.13423-0.15794,0.23026-0.29484,0.27305l-3.20844,1.09088c0,0-0.8338,0.18866-0.28876-0.1925    c0.38446-0.26889,0.76892-0.53779,1.15339-0.80668c0.35757-0.26005,0.72069-0.51234,1.08397-0.76431    c0.17716-0.12288,0.35417-0.24598,0.53104-0.36928c0.12286-0.08565,0.25227-0.17197,0.40177-0.20122    c0.14239-0.02786,0.30199,0.01906,0.41712,0.10463C22.9749,20.79145,23.04038,20.88844,23.08242,20.99838z M14.73606,17.67285    c0.03088-0.0351,3.10608-3.36212,7.2865-0.42633c-0.07367-0.4621-0.2569-1.09644-0.72888-1.60004    c-0.1205-0.12855-0.25542-0.24337-0.40137-0.34206c-0.14995-0.10139-0.31117-0.18561-0.47896-0.25335    c-0.17913-0.07231-0.36552-0.1259-0.55482-0.16395c-0.12499-0.02512-0.2513-0.04352-0.37816-0.05616    c-0.06196-0.00617-0.12443-0.00885-0.18623-0.01539c-0.05977-0.00632-0.12103-0.0003-0.18135-0.00755    c-0.06318-0.00759-0.1316-0.02309-0.18226-0.063c-0.10324-0.08132-0.14499-0.22629-0.09274-0.34818    c0.04789-0.11173,0.15969-0.18914,0.28157-0.18688c1.1167,0.02002,1.99707,0.3667,2.6167,1.03076    c1.00391,1.07617,0.93896,2.58398,0.93604,2.64747c-0.00211,0.04066-0.02248,0.08118-0.04063,0.11678    c-0.03219,0.06309-0.07467,0.10523-0.12702,0.15202c-0.05228,0.04672-0.10649,0.09089-0.16112,0.13479    c-0.02572,0.02067-0.05142,0.04135-0.07744,0.06166c-0.0141,0.011-0.02825,0.02195-0.04244,0.03285    c-0.01208,0.00927-0.03414,0.02011-0.04268,0.03253c-0.10882,0.08232-0.21999,0.16155-0.33317,0.23776    c-0.13674,0.09207-0.27646,0.17974-0.4189,0.26272c-0.16178,0.09425-0.3271,0.18247-0.4957,0.26393    c-0.18407,0.08893-0.37207,0.16981-0.56357,0.24138c-0.20379,0.07616-0.41157,0.14177-0.62251,0.19508    c-0.22121,0.0559-0.44591,0.09825-0.67253,0.12503c-0.18727,0.02213-0.37582,0.03362-0.56441,0.03362    c-1.16064,0-2.46289-0.42236-3.76025-1.69092C14.63498,17.9751,14.62912,17.79248,14.73606,17.67285z M13.13852,27.31818    c-0.77008-0.03204-0.3208-0.25671-0.3208-0.25671s2.69501-0.22455,5.56476-1.8288    c2.69318-1.50543,5.27838-1.54156,5.58636-1.54034c0.30804-0.00122,2.89319,0.03491,5.58636,1.54034    c2.86975,1.60425,5.56476,1.8288,5.56476,1.8288s0.44928,0.22467-0.3208,0.25671c-0.77002,0.0321-3.89758,0-5.97534-1.02667    c-1.95178-0.96442-4.54712-1.05115-4.85498-1.05817c-0.3078,0.00702-2.9032,0.09375-4.85504,1.05817    C17.03598,27.31818,13.90854,27.35028,13.13852,27.31818z M27.3049,27.4668c0.03662,0.16162-0.06445,0.32227-0.22607,0.35889    c-0.71387,0.16162-1.62354,0.21533-2.51709,0.21533c-1.71436,0-3.36963-0.19727-3.47412-0.20996    c-0.16455-0.02002-0.28174-0.16943-0.26172-0.33398c0.02051-0.16455,0.17822-0.27588,0.33398-0.26172    c0.03711,0.00391,3.80566,0.45264,5.78613,0.00537C27.10813,27.20166,27.26828,27.30518,27.3049,27.4668z M29.74192,34.23536    c-0.01367,0-1.3667,0.00488-2.24414,0.34814c-0.41064,0.16064-1.28418,0.24121-2.60547,0.24121    c-0.59326,0-1.27637-0.01611-2.04883-0.04883l-0.15967-0.00635c-0.16553-0.00146-0.29932-0.13623-0.29834-0.30127    c0.00049-0.16504,0.13379-0.29834,0.29883-0.29834c0.01807,0,0.08252,0.00244,0.18408,0.00635    c3.1626,0.13477,4.11963-0.0376,4.41064-0.15137c0.98389-0.38477,2.40283-0.38916,2.46289-0.38916    c0.16553,0,0.2998,0.13428,0.2998,0.2998S29.90744,34.23536,29.74192,34.23536z M27.85032,31.22168    c-0.46533,0.18945-0.94873,0.26074-1.4126,0.26074c-1.11279,0-2.11328-0.41016-2.4873-0.58398    c-2.10059,1.16748-4.54639-0.12451-5.36279-0.55518c-0.74023-0.38916-1.2251-0.32422-1.23096-0.32227    c-0.16895,0.02002-0.31641-0.08789-0.3418-0.24951c-0.02637-0.16211,0.08203-0.31494,0.24414-0.34277    c0.02686-0.00391,0.67383-0.10791,1.54639,0.35107c0.90234,0.47607,3.13672,1.65283,4.9751,0.52344    c0.08984-0.05615,0.20264-0.06006,0.29688-0.01025c0.01953,0.00977,1.9668,1.01514,3.54639,0.37305    c1.6582-0.67529,4.67773-1.50732,5.79688-1.24316c0.16113,0.03809,0.26123,0.19922,0.22314,0.36084    c-0.0376,0.16162-0.19873,0.26025-0.36084,0.22314C32.4133,29.80078,29.64377,30.49072,27.85032,31.22168z" style="fill:#303030;"/><path d="M18.51303,19.18714c0.52124,0.00409,1.00708-0.0907,1.44659-0.23303    c0.00842-0.03522,0.55909-1.02192-0.18085-2.16119c-0.49219-0.13867-0.95331-0.19043-1.38007-0.17755    C19.16977,17.75958,18.79428,18.72705,18.51303,19.18714z" style="fill:#303030;"/><path d="M17.0289,18.89923c0.38165,0.14783,0.75366,0.22882,1.11383,0.26379    c-0.47784-1.01587-0.07666-2.1535,0.09357-2.54077c-0.36737,0.02484-0.70807,0.09174-1.01715,0.18872    C17.21567,16.81806,16.64967,17.55069,17.0289,18.89923z" style="fill:#303030;"/><path d="M27.68723,18.95393c0.43939,0.14227,0.92511,0.23705,1.44623,0.2329    c-0.28082-0.45959-0.65503-1.4245,0.11108-2.56622c-0.42615-0.01312-0.88641,0.03773-1.37726,0.17512    C27.22202,17.8653,27.64573,18.96653,27.68723,18.95393z" style="fill:#303030;"/></g></g></svg>