<?xml version="1.0" ?><svg style="enable-background:new 0 0 48 48;" version="1.1" viewBox="6 6 36 36" xml:space="preserve" xmlns="http://www.w3.org/2000/svg" xmlns:xlink="http://www.w3.org/1999/xlink"><g id="Padding__x26__Artboard"/><g id="Icons"><g><path d="M28.15308,22.38953c-0.07745,0.00586-1.74609,0.1734-2.35876,1.604h4.71997    C30.23706,23.38288,29.53693,22.26899,28.15308,22.38953z" style="fill:#303030;"/><path d="M25.27466,26.92127l-1.24121,0.50342c-0.07471,0.03027-0.15869,0.02979-0.23145-0.00244    l-1.16846-0.50391c-0.34021,0.14435-1.44635,0.76184-1.89764,2.50244h6.40961    C26.72198,27.78962,25.62469,27.09839,25.27466,26.92127z" style="fill:#303030;"/><path d="M19.8479,22.38953c-1.38788-0.112-2.08411,0.9978-2.35999,1.604h4.71594    C21.5824,22.55463,19.86682,22.39087,19.8479,22.38953z" style="fill:#303030;"/><path d="M6.01398,21.27588l1.57983,0.6264C7.59381,21.90229,6.7594,21.40778,6.01398,21.27588z" style="fill:#303030;"/><path d="M41.98602,21.27588c-0.53339,0.11676-1.58038,0.62665-1.58038,0.62665L41.98602,21.27588z" style="fill:#303030;"/><path d="M41.98602,21.27588c-0.53339,0.11676-1.58038,0.62665-1.58038,0.62665L41.98602,21.27588z" style="fill:none;"/><path d="M6.01398,21.27588l1.57983,0.6264C7.59381,21.90229,6.7594,21.40778,6.01398,21.27588z" style="fill:none;"/><path d="M15.33649,26.88306c-0.07776-0.31067-0.14569-0.62646-0.19843-0.93549l-1.52942-0.27631    c-0.16309-0.02979-0.27148-0.18555-0.24219-0.34863c0.02979-0.16357,0.18896-0.26758,0.34863-0.24219l1.32776,0.23987    c-0.05389-0.40558-0.08862-0.7644-0.10901-1.01868c-1.47998,0.2749-3.93262-0.35156-4.73242-1.10205    c-0.39044-0.36578-1.56635-0.88556-2.6076-1.2973l-1.57983-0.6264c0.00568,0.00598,0.00391,0.01532,0.01019,0.02087    c1.14551,1.01416,3.05127,2.76172,3.2876,3.13232c0.34766,0.54688,3.67285,3.05713,5.96533,3.05713    c0.07898,0,0.15198-0.01428,0.22845-0.02039L15.33649,26.88306z" style="fill:#303030;"/><path d="M40.40564,21.90253c-1.04114,0.41168-2.21667,0.93134-2.60706,1.29706    c-0.80029,0.75049-3.25732,1.375-4.73291,1.10205c-0.02045,0.25476-0.05542,0.61469-0.10986,1.02155l0.9917-0.1734    c0.16406-0.02539,0.31885,0.08057,0.34717,0.24365c0.02881,0.16309-0.08057,0.31885-0.24365,0.34717l-1.19092,0.20819    c-0.05304,0.30835-0.12164,0.62366-0.19995,0.93427l-0.1701,0.5824c0.078,0.00641,0.15253,0.02075,0.23334,0.02075    c2.29346,0,5.61719-2.51025,5.96436-3.05713c0.23633-0.37061,2.14209-2.11816,3.28809-3.13232    c0.00629-0.00555,0.00452-0.01489,0.01019-0.02087L40.40564,21.90253z" style="fill:#303030;"/><path d="M15.54871,20.39332l0.53204,0.0564C15.94781,20.41498,15.54871,20.39332,15.54871,20.39332z" style="fill:#303030;"/><path d="M37.87671,20.96522c-1.68799,0.4165-2.23779,0.33008-3.14795,0.18652    c-0.29004-0.0459-0.62109-0.09863-1.04688-0.14258c-1.64404-0.17285-2.91309,0.33545-2.92529,0.34082    c-0.15479,0.06445-0.32764-0.01123-0.39111-0.16455c-0.06201-0.15332,0.01123-0.32812,0.16406-0.39111    c0.03522-0.01416,0.56683-0.22687,1.38995-0.34424l0.53174-0.05634c0.0119-0.04871,0.03198-0.09619,0.01727-0.14777    c-0.40521-1.43115-1.51221-2.57489-2.46954-3.34662c-0.1275,0.12225-0.27832,0.27301-0.41754,0.43347    c-0.88849,1.01233-1.64618,3.24725-1.65442,3.27155c-0.04199,0.125-0.15869,0.20459-0.28418,0.20459    c-0.03174,0-0.06396-0.00537-0.0957-0.01611c-0.15674-0.05273-0.24121-0.22266-0.18848-0.37988    c0.03381-0.1015,0.78668-2.31818,1.74554-3.44257c0,0,0.21149-0.22693,0.44305-0.42004    c-0.49512-0.35986-0.90753-0.60681-1.06506-0.69452c-0.08856-0.12573-0.19489-0.23596-0.30823-0.33954    c-0.12616,0.09821-0.28217,0.23059-0.44806,0.40851c-1.55701,1.47278-2.07684,4.33459-2.08209,4.36413    c-0.02539,0.14551-0.15186,0.24805-0.29492,0.24805c-0.01709,0-0.03467-0.00146-0.05225-0.00439    c-0.16309-0.02832-0.27246-0.18408-0.24365-0.34717c0.02191-0.12579,0.53845-2.96729,2.15552-4.59509    c0,0,0.23682-0.22821,0.51471-0.40607c-1.37952-0.80804-3.55328-0.66113-3.66681-0.65314    c-0.02283,0.00177-0.09045,0.00177-0.11328,0c-0.11395-0.00769-2.33411-0.1568-3.71082,0.68207    c0.15137,0.10083,0.32379,0.23065,0.48645,0.40784c1.66522,1.61615,2.19537,4.52734,2.21753,4.65472    c0.02881,0.16309-0.08057,0.31836-0.24365,0.34717c-0.01758,0.00293-0.03467,0.00439-0.05225,0.00439    c-0.14258,0-0.26953-0.10254-0.29492-0.24805c-0.00531-0.02985-0.53778-2.95398-2.12933-4.40979    c0,0-0.23138-0.20325-0.474-0.37958c-0.08173,0.0824-0.15717,0.17065-0.2243,0.26593    c-0.15662,0.08722-0.56561,0.33215-1.05695,0.6886c0.14795,0.12909,0.31769,0.28827,0.42859,0.43115    c0.95721,1.12592,1.70789,3.33606,1.74164,3.43738c0.05273,0.15723-0.03174,0.32715-0.18848,0.37988    c-0.03174,0.01074-0.06396,0.01611-0.0957,0.01611c-0.12549,0-0.24219-0.07959-0.28418-0.20459    c-0.00824-0.02429-0.76373-2.25171-1.6496-3.26611c0,0-0.19244-0.23712-0.41364-0.43774    c-0.95721,0.77173-2.06329,1.91498-2.46802,3.34546c-0.01471,0.05145,0.00543,0.09875,0.01721,0.14734    c0,0,0.39911,0.02167,0.53204,0.0564c0.82263,0.11749,1.3537,0.33044,1.38922,0.3446    c0.15283,0.06299,0.22607,0.23779,0.16406,0.39111c-0.0625,0.15332-0.23633,0.229-0.39111,0.16455    c-0.01221-0.00537-1.28125-0.51172-2.92529-0.34082c-0.42578,0.04395-0.75684,0.09668-1.04688,0.14258    c-0.91016,0.14355-1.45996,0.23096-3.14795-0.18652c-1.22998-0.30225-2.34277-0.10596-3.03418,0.09863    c1.07617,0.39941,2.92334,1.13623,3.52295,1.69824c0.7207,0.6748,3.34961,1.27246,4.49854,0.87598    c0.09033-0.02832,0.18701-0.01807,0.26562,0.03467c0.07812,0.05225,0.12695,0.13867,0.13184,0.23242    c0.05371,0.97363,0.35596,3.66357,1.10107,4.40869l3.49072,4.12696c0.00586-0.00049,1.40918,1.16113,3.45557,1.0332    l0.87012-0.00049c2.10498,0.13525,3.49414-1.05322,3.50732-1.06494l3.44189-4.07666    c0.7627-0.76416,1.06396-3.45312,1.11768-4.42676c0.00488-0.09375,0.05371-0.17969,0.13184-0.23242    c0.07861-0.05273,0.17676-0.06494,0.26562-0.03467c1.14844,0.39746,3.77832-0.20117,4.49902-0.87598    c0.59912-0.56152,2.44385-1.29785,3.52051-1.69727C40.21704,20.86024,39.10327,20.66248,37.87671,20.96522z M18.5105,28.69422    c-0.05957,0.07227-0.14551,0.10986-0.23242,0.10986c-0.06689,0-0.13379-0.02197-0.18994-0.06738    c-0.30225-0.24707-0.80078-1.07227-0.89746-1.23535c-0.08496-0.14258-0.03809-0.32666,0.10449-0.41113    c0.14355-0.08643,0.32617-0.03711,0.41113,0.10449c0.21826,0.36768,0.59912,0.94482,0.76172,1.07715    C18.59595,28.37684,18.61548,28.5658,18.5105,28.69422z M17.56665,25.69861c-0.13965-0.08887-0.18066-0.27344-0.09277-0.41309    c0.08838-0.13867,0.27246-0.18115,0.41357-0.09424c0.02094,0.01318,0.20984,0.12,0.50543,0.22662    c-0.20264-0.27509-0.25177-0.58624-0.25085-0.82477h-1.091l-0.00146,0.00049c-0.02637,0-0.38844-0.00878-0.28906-0.38086    c0.24168-0.90488,1.22314-2.56299,3.1333-2.42188c0.0236,0.00193,2.28469,0.2473,3.0143,2.33983    c0.03374,0.09677,0.02497,0.43832-0.26723,0.46242h-1.40399c-0.01984,0.32739-0.09149,0.60577-0.22369,0.82416    c0.20026-0.0661,0.40259-0.13702,0.61401-0.24115c0.14941-0.07178,0.32861-0.01221,0.40186,0.13623    c0.07324,0.14893,0.01221,0.32861-0.13623,0.40186c-0.80762,0.39795-1.5542,0.53125-2.19141,0.53125    C18.44946,26.24549,17.61792,25.73133,17.56665,25.69861z M27.61548,31.23865c-0.16602-0.00342-0.29736-0.14062-0.29346-0.30664    c0.0072-0.3291-0.01312-0.63019-0.04999-0.91162h-6.66486c-0.04102,0.2843-0.07074,0.58575-0.07422,0.92139    c-0.00146,0.16455-0.13574,0.29688-0.2998,0.29688c-0.00098,0-0.00195,0-0.00293,0    c-0.16602-0.00146-0.29883-0.13721-0.29688-0.30273c0.03345-3.27161,1.89252-4.32159,2.45776-4.56549l0.89429-3.26215    c0.04395-0.15918,0.20801-0.25049,0.36865-0.21045c0.16016,0.04395,0.25391,0.20898,0.21045,0.36865l-0.86523,3.15619    l0.9248,0.39899l1.0578-0.42877l-0.85663-3.1264c-0.04346-0.15967,0.05029-0.32471,0.21045-0.36865    c0.16016-0.04102,0.3252,0.05127,0.36865,0.21045l0.9082,3.31464c0.62543,0.33618,2.37469,1.54352,2.30908,4.52228    C27.91821,31.11024,27.78003,31.20936,27.61548,31.23865z M30.95044,24.59315h-1.09253    c0.00085,0.23749-0.04822,0.54669-0.24841,0.82086c0.30731-0.10968,0.49731-0.21887,0.50256-0.22223    c0.14062-0.09033,0.3252-0.04736,0.41406,0.09277c0.08887,0.13965,0.04736,0.3252-0.09277,0.41406    c-0.05127,0.03271-0.8833,0.54688-2.13525,0.54688c-0.63721,0-1.3833-0.1333-2.19141-0.53125    c-0.14844-0.07324-0.20947-0.25293-0.13623-0.40137c0.07324-0.1499,0.25439-0.20947,0.40137-0.13672    c0.21112,0.10394,0.41345,0.17389,0.61395,0.23956c-0.13177-0.21808-0.20337-0.49585-0.22314-0.82257h-1.40259l-0.0014,0.00049    c-0.31813-0.00004-0.30205-0.33063-0.29102-0.37305c0.57562-2.2128,3.01465-2.42773,3.03955-2.42969    c1.90723-0.1499,2.88086,1.51855,3.13232,2.42188C31.24365,24.22761,31.34395,24.58136,30.95044,24.59315z" style="fill:#303030;"/></g></g></svg>
