<?xml version="1.0" encoding="utf-8"?>
<!-- Generator: Adobe Illustrator 13.0.2, SVG Export Plug-In . SVG Version: 6.00 Build 14948)  -->
<svg version="1.2" baseProfile="tiny" id="Ebene_1" xmlns="http://www.w3.org/2000/svg" xmlns:xlink="http://www.w3.org/1999/xlink"
	 x="0px" y="0px" width="42px" height="42px" viewBox="0 0 42 42" xml:space="preserve">
<path d="M39,34.5v-18c0-1.656-1.344-3-3-3h-3v3v3v15L30,42h12L39,34.5z"/>
<path d="M9,19.5v-3v-3H6c-1.657,0-3,1.343-3,3v18L0,42h12l-3-7.5V19.5z"/>
<path d="M31.45,12h0.05v-1.502C31.5,4.701,26.798,0,21,0S10.5,4.701,10.5,10.498V12h0.05H31.45z M27,7.5c0.829,0,1.5,0.673,1.5,1.5
	c0,0.828-0.671,1.5-1.5,1.5S25.5,9.828,25.5,9C25.5,8.173,26.171,7.5,27,7.5 M21,2.25c1.654,0,3,1.346,3,3c0,1.655-1.346,3-3,3
	c-1.658,0-3-1.345-3-3C18,3.596,19.342,2.25,21,2.25"/>
<path d="M31.5,13.5h-21v21l3,3h15l3-3V13.5z M25.5,25.5h-9c-0.829,0-1.5-0.671-1.5-1.5s0.671-1.5,1.5-1.5h9
	c0.829,0,1.5,0.671,1.5,1.5S26.329,25.5,25.5,25.5 M25.5,19.5h-9c-0.829,0-1.5-0.672-1.5-1.5s0.671-1.5,1.5-1.5h9
	c0.829,0,1.5,0.672,1.5,1.5S26.329,19.5,25.5,19.5"/>
</svg>
