<?xml version="1.0" encoding="utf-8"?>
<!-- Generator: Adobe Illustrator 13.0.2, SVG Export Plug-In . SVG Version: 6.00 Build 14948)  -->
<svg version="1.2" baseProfile="tiny" id="Ebene_1" xmlns="http://www.w3.org/2000/svg" xmlns:xlink="http://www.w3.org/1999/xlink"
	 x="0px" y="0px" width="42px" height="42px" viewBox="0 0 42 42" xml:space="preserve">
<path d="M18,35.25c-0.415,0-0.75,0.335-0.75,0.75v4.5c0,0.415,0.335,0.75,0.75,0.75s0.75-0.335,0.75-0.75V36
	C18.75,35.585,18.415,35.25,18,35.25"/>
<path d="M24,35.25c-0.415,0-0.75,0.335-0.75,0.75v4.5c0,0.415,0.335,0.75,0.75,0.75s0.75-0.335,0.75-0.75V36
	C24.75,35.585,24.415,35.25,24,35.25"/>
<path d="M37.5,10.5V9c0-4.95-4.109-9-9.129-9H21h-7.371C8.609,0,4.5,4.05,4.5,9v1.5H21H37.5z"/>
<path d="M39,22.5V15c0,0,0-1.5-1.5-1.5V12H21H4.5v1.5C3,13.5,3,15,3,15v7.5c-1.903,0.842-3,2.413-3,4.5
	c0,2.788,4.469,6.694,4.469,7.5c0,4.5,3.11,7.5,7.647,7.5c1.659,0,3.181-0.525,4.405-1.396C16.518,40.567,16.5,40.537,16.5,40.5V36
	c0-0.828,0.674-1.5,1.5-1.5c0.669,0,1.217,0.448,1.409,1.056H19.5V35.25c0-0.828,0.674-1.5,1.5-1.5s1.5,0.672,1.5,1.5v0.306h0.091
	C22.783,34.948,23.331,34.5,24,34.5c0.826,0,1.5,0.672,1.5,1.5v4.5c0,0.037-0.018,0.067-0.021,0.104
	C26.703,41.475,28.225,42,29.884,42c4.537,0,7.647-3,7.647-7.5c0-0.806,4.469-4.712,4.469-7.5C42,24.913,40.903,23.342,39,22.5
	 M11.25,39C10.008,39,9,37.992,9,36.75s1.008-2.25,2.25-2.25s2.25,1.008,2.25,2.25S12.492,39,11.25,39 M13.5,28.5h-2.572
	c-0.249,0-0.428-0.135-0.428-0.3c0-0.166,0.179-0.337,0.428-0.387L13.5,27V28.5z M18,26.609c-0.876,0.363-1.723,0.813-2.555,1.223
	c-0.134,0.066-0.293,0.116-0.445,0.169v-2.079c1.065-0.916,2.016-1.544,3-1.956V26.609z M10.5,21c-3,0-3-6-3-6h12
	C19.5,15,13.5,21,10.5,21 M22.5,26.109c-0.489-0.117-0.987-0.188-1.5-0.188c-0.513,0-1.011,0.07-1.5,0.188v-2.599
	c0.475-0.094,0.97-0.152,1.5-0.175c0.53,0.022,1.025,0.081,1.5,0.175V26.109z M27,28.001c-0.152-0.053-0.311-0.103-0.445-0.169
	c-0.832-0.409-1.679-0.859-2.555-1.223v-2.644c0.984,0.412,1.935,1.04,3,1.956V28.001z M30.75,39c-1.242,0-2.25-1.008-2.25-2.25
	s1.008-2.25,2.25-2.25S33,35.508,33,36.75S31.992,39,30.75,39 M28.5,28.5V27l2.572,0.813c0.249,0.05,0.428,0.221,0.428,0.387
	c0,0.165-0.179,0.3-0.428,0.3H28.5z M31.5,21c-3,0-9-6-9-6h12C34.5,15,34.5,21,31.5,21"/>
<path d="M21,34.5c-0.415,0-0.75,0.335-0.75,0.75v6c0,0.415,0.335,0.75,0.75,0.75s0.75-0.335,0.75-0.75v-6
	C21.75,34.835,21.415,34.5,21,34.5"/>
</svg>
